<?xml version="1.0" encoding="utf-8"?>
<!-- Generator: Adobe Illustrator 23.0.6, SVG Export Plug-In . SVG Version: 6.00 Build 0)  -->
<svg version="1.1" id="Capa_1" xmlns="http://www.w3.org/2000/svg" xmlns:xlink="http://www.w3.org/1999/xlink" x="0px" y="0px"
	 viewBox="0 0 296.5 296.5" style="enable-background:new 0 0 296.5 296.5;" xml:space="preserve">
<style type="text/css">
	.st0{fill:#C05D1F;}
</style>
<g>
	<path class="st0" d="M244.6,35.6C222.9,17,197.2,5.8,170.9,1.7c-49-7.5-100.6,9.7-135.2,50.1c-53.2,62.2-46,155.8,16.2,209
		c21.8,18.6,47.4,29.9,73.8,33.9c49,7.5,100.6-9.7,135.2-50.1C314.1,182.4,306.8,88.9,244.6,35.6z M273.4,191.2l-45.3-15.6
		c6.1-17.8,6-37.1,0-54.7l45.3-15.6c3.6,10.5,5.9,21.4,6.7,32.7C281.5,156.4,279.2,174.4,273.4,191.2z M275.9,104.1
		C275.9,104.1,275.9,104.1,275.9,104.1C275.9,104.1,275.9,104.1,275.9,104.1z M247.9,61.5l-36.1,31.3c-2.7-3.1-5.6-6-8.8-8.7
		c-11.5-9.8-24.8-16-38.6-18.7l9.1-46.7c22.3,4.3,43.2,14.3,60.6,29.2C239.1,52.1,243.7,56.7,247.9,61.5z M103.3,24
		c6.4-2.3,13-4.1,19.7-5.4l9.1,46.8c-17.8,3.5-34.6,12.7-47.4,27.3L48.5,61.4C63.3,44.4,82.2,31.6,103.3,24z M23.1,105.2l45.3,15.6
		c-6.1,17.8-6,37.1,0,54.7l-45.3,15.6c-3.6-10.4-5.8-21.4-6.7-32.7C15,140.2,17.3,122.1,23.1,105.2z M48.5,235.1l36.1-31.4
		c2.7,3.1,5.6,6,8.8,8.7c11.5,9.8,24.8,16,38.6,18.7l-9.1,47c-22.3-4.3-43.2-14.4-60.6-29.3C57.3,244.5,52.7,239.9,48.5,235.1z
		 M193.2,272.6c-6.4,2.3-13,4.1-19.7,5.4l-9.1-47c17.8-3.5,34.6-12.7,47.4-27.3l36.1,31.4C233.2,252.1,214.3,265,193.2,272.6z"/>
	<circle class="st0" cx="93.4" cy="53.5" r="8"/>
	<circle class="st0" cx="38.8" cy="148.4" r="8"/>
	<circle class="st0" cx="93.6" cy="243.1" r="8"/>
	<circle class="st0" cx="203.1" cy="243" r="8"/>
	<circle class="st0" cx="257.7" cy="148.1" r="8"/>
	<circle class="st0" cx="202.9" cy="53.4" r="8"/>
</g>
</svg>
